<?xml version="1.0" encoding="utf-8"?>
<!-- Generator: Adobe Illustrator 19.1.0, SVG Export Plug-In . SVG Version: 6.00 Build 0)  -->
<svg version="1.1" id="Layer_1" xmlns="http://www.w3.org/2000/svg" xmlns:xlink="http://www.w3.org/1999/xlink" x="0px" y="0px"
	 viewBox="0 0 12.8 12.8" enable-background="new 0 0 12.8 12.8" xml:space="preserve">
<g>
	<polygon fill="none" stroke="#000000" stroke-width="0.2" stroke-linecap="round" stroke-miterlimit="10" points="3,10.6 2.1,9.8 
		2.1,9.1 9.8,1.4 11.5,3 3.8,10.6 	"/>
	<polygon fill="none" stroke="#000000" stroke-width="0.2" stroke-linecap="round" stroke-miterlimit="10" points="0.1,12.7 2.4,10 
		2.8,10.4 	"/>
	
		<rect x="10.3" y="1.8" transform="matrix(-0.7071 -0.7071 0.7071 -0.7071 17.0333 11.0828)" fill="none" stroke="#000000" stroke-width="0.2" stroke-linecap="round" stroke-miterlimit="10" width="0.9" height="0.5"/>
	<polygon fill="none" stroke="#000000" stroke-width="0.2" stroke-linecap="round" stroke-miterlimit="10" points="10.4,0.3 
		10.6,1.4 11.4,2.3 12.5,2.4 	"/>
	
		<rect x="6.4" y="3" transform="matrix(0.7071 0.7071 -0.7071 0.7071 6.9375 -2.8197)" fill="none" stroke="#000000" stroke-width="0.2" stroke-linecap="round" stroke-miterlimit="10" width="0.9" height="7.9"/>
	
		<line fill="none" stroke="#000000" stroke-width="0.2" stroke-linecap="round" stroke-miterlimit="10" x1="8.9" y1="4.3" x2="9.3" y2="4.7"/>
	
		<line fill="none" stroke="#000000" stroke-width="0.2" stroke-linecap="round" stroke-miterlimit="10" x1="8.8" y1="4.4" x2="9" y2="4.6"/>
	
		<line fill="none" stroke="#000000" stroke-width="0.2" stroke-linecap="round" stroke-miterlimit="10" x1="8.7" y1="4.6" x2="9" y2="4.9"/>
	
		<line fill="none" stroke="#000000" stroke-width="0.2" stroke-linecap="round" stroke-miterlimit="10" x1="8.6" y1="4.7" x2="8.7" y2="4.8"/>
	
		<line fill="none" stroke="#000000" stroke-width="0.2" stroke-linecap="round" stroke-miterlimit="10" x1="8.4" y1="4.8" x2="8.8" y2="5.2"/>
	
		<line fill="none" stroke="#000000" stroke-width="0.2" stroke-linecap="round" stroke-miterlimit="10" x1="8.3" y1="4.9" x2="8.5" y2="5.1"/>
	
		<line fill="none" stroke="#000000" stroke-width="0.2" stroke-linecap="round" stroke-miterlimit="10" x1="8.2" y1="5.1" x2="8.5" y2="5.4"/>
	
		<line fill="none" stroke="#000000" stroke-width="0.2" stroke-linecap="round" stroke-miterlimit="10" x1="8.1" y1="5.2" x2="8.2" y2="5.3"/>
	
		<line fill="none" stroke="#000000" stroke-width="0.2" stroke-linecap="round" stroke-miterlimit="10" x1="7.9" y1="5.3" x2="8.3" y2="5.7"/>
	
		<line fill="none" stroke="#000000" stroke-width="0.2" stroke-linecap="round" stroke-miterlimit="10" x1="7.8" y1="5.4" x2="8" y2="5.6"/>
	
		<line fill="none" stroke="#000000" stroke-width="0.2" stroke-linecap="round" stroke-miterlimit="10" x1="7.7" y1="5.6" x2="8" y2="5.9"/>
	
		<line fill="none" stroke="#000000" stroke-width="0.2" stroke-linecap="round" stroke-miterlimit="10" x1="7.6" y1="5.7" x2="7.7" y2="5.8"/>
	
		<line fill="none" stroke="#000000" stroke-width="0.2" stroke-linecap="round" stroke-miterlimit="10" x1="7.4" y1="5.8" x2="7.8" y2="6.2"/>
	
		<line fill="none" stroke="#000000" stroke-width="0.2" stroke-linecap="round" stroke-miterlimit="10" x1="7.3" y1="5.9" x2="7.4" y2="6.1"/>
	
		<line fill="none" stroke="#000000" stroke-width="0.2" stroke-linecap="round" stroke-miterlimit="10" x1="7.2" y1="6.1" x2="7.5" y2="6.4"/>
	
		<line fill="none" stroke="#000000" stroke-width="0.2" stroke-linecap="round" stroke-miterlimit="10" x1="7.1" y1="6.2" x2="7.2" y2="6.3"/>
	
		<line fill="none" stroke="#000000" stroke-width="0.2" stroke-linecap="round" stroke-miterlimit="10" x1="6.9" y1="6.3" x2="7.3" y2="6.7"/>
	
		<line fill="none" stroke="#000000" stroke-width="0.2" stroke-linecap="round" stroke-miterlimit="10" x1="6.8" y1="6.4" x2="6.9" y2="6.6"/>
	
		<line fill="none" stroke="#000000" stroke-width="0.2" stroke-linecap="round" stroke-miterlimit="10" x1="6.6" y1="6.6" x2="7" y2="6.9"/>
	
		<line fill="none" stroke="#000000" stroke-width="0.2" stroke-linecap="round" stroke-miterlimit="10" x1="6.6" y1="6.7" x2="6.7" y2="6.8"/>
	
		<line fill="none" stroke="#000000" stroke-width="0.2" stroke-linecap="round" stroke-miterlimit="10" x1="6.4" y1="6.8" x2="6.8" y2="7.2"/>
	
		<line fill="none" stroke="#000000" stroke-width="0.2" stroke-linecap="round" stroke-miterlimit="10" x1="6.3" y1="6.9" x2="6.4" y2="7.1"/>
	
		<line fill="none" stroke="#000000" stroke-width="0.2" stroke-linecap="round" stroke-miterlimit="10" x1="6.1" y1="7.1" x2="6.5" y2="7.4"/>
	
		<line fill="none" stroke="#000000" stroke-width="0.2" stroke-linecap="round" stroke-miterlimit="10" x1="6" y1="7.2" x2="6.2" y2="7.3"/>
	
		<line fill="none" stroke="#000000" stroke-width="0.2" stroke-linecap="round" stroke-miterlimit="10" x1="5.9" y1="7.3" x2="6.2" y2="7.7"/>
	
		<line fill="none" stroke="#000000" stroke-width="0.2" stroke-linecap="round" stroke-miterlimit="10" x1="5.8" y1="7.4" x2="5.9" y2="7.6"/>
	
		<line fill="none" stroke="#000000" stroke-width="0.2" stroke-linecap="round" stroke-miterlimit="10" x1="5.6" y1="7.6" x2="6" y2="7.9"/>
	
		<line fill="none" stroke="#000000" stroke-width="0.2" stroke-linecap="round" stroke-miterlimit="10" x1="5.5" y1="7.7" x2="5.7" y2="7.8"/>
	
		<line fill="none" stroke="#000000" stroke-width="0.2" stroke-linecap="round" stroke-miterlimit="10" x1="5.4" y1="7.8" x2="5.7" y2="8.2"/>
	
		<line fill="none" stroke="#000000" stroke-width="0.2" stroke-linecap="round" stroke-miterlimit="10" x1="5.3" y1="7.9" x2="5.4" y2="8.1"/>
	
		<line fill="none" stroke="#000000" stroke-width="0.2" stroke-linecap="round" stroke-miterlimit="10" x1="5.1" y1="8.1" x2="5.5" y2="8.4"/>
	
		<line fill="none" stroke="#000000" stroke-width="0.2" stroke-linecap="round" stroke-miterlimit="10" x1="5" y1="8.2" x2="5.2" y2="8.3"/>
	
		<line fill="none" stroke="#000000" stroke-width="0.2" stroke-linecap="round" stroke-miterlimit="10" x1="4.9" y1="8.3" x2="5.2" y2="8.7"/>
	
		<line fill="none" stroke="#000000" stroke-width="0.2" stroke-linecap="round" stroke-miterlimit="10" x1="4.8" y1="8.4" x2="4.9" y2="8.6"/>
	
		<line fill="none" stroke="#000000" stroke-width="0.2" stroke-linecap="round" stroke-miterlimit="10" x1="4.6" y1="8.6" x2="5" y2="8.9"/>
	
		<line fill="none" stroke="#000000" stroke-width="0.2" stroke-linecap="round" stroke-miterlimit="10" x1="4.5" y1="8.7" x2="4.7" y2="8.8"/>
	
		<line fill="none" stroke="#000000" stroke-width="0.2" stroke-linecap="round" stroke-miterlimit="10" x1="4.4" y1="8.8" x2="4.7" y2="9.2"/>
	
		<line fill="none" stroke="#000000" stroke-width="0.2" stroke-linecap="round" stroke-miterlimit="10" x1="4.3" y1="8.9" x2="4.4" y2="9.1"/>
	
		<line fill="none" stroke="#000000" stroke-width="0.2" stroke-linecap="round" stroke-miterlimit="10" x1="4.1" y1="9.1" x2="4.5" y2="9.4"/>
	
		<line fill="none" stroke="#000000" stroke-width="0.2" stroke-linecap="round" stroke-miterlimit="10" x1="4" y1="9.2" x2="4.2" y2="9.3"/>
	
		<line fill="none" stroke="#000000" stroke-width="0.2" stroke-linecap="round" stroke-miterlimit="10" x1="3.9" y1="9.3" x2="4.2" y2="9.7"/>
	
		<line fill="none" stroke="#000000" stroke-width="0.2" stroke-linecap="round" stroke-miterlimit="10" x1="3.8" y1="9.4" x2="3.9" y2="9.6"/>
</g>
</svg>
