<?xml version="1.0" encoding="utf-8"?>
<!-- Generator: Adobe Illustrator 19.1.0, SVG Export Plug-In . SVG Version: 6.00 Build 0)  -->
<svg version="1.1" id="Layer_1" xmlns="http://www.w3.org/2000/svg" xmlns:xlink="http://www.w3.org/1999/xlink" x="0px" y="0px"
	 viewBox="0 0 100 100" enable-background="new 0 0 100 100" xml:space="preserve">
<g>
	<polygon fill="#EC7822" points="82.1,79.5 72.1,79.5 73.3,35.6 80.9,35.6 	"/>
	<polygon fill="#EC7822" points="63.7,79.5 53.8,79.5 54.9,35.6 62.6,35.6 	"/>
	<polygon fill="#EC7822" points="45.5,79.5 35.5,79.5 36.7,35.6 44.4,35.6 	"/>
	<polygon fill="#EC7822" points="27.1,79.5 17.1,79.5 18.3,35.6 25.9,35.6 	"/>
	<polygon fill="#EC7822" points="93,93 93,87 88,87 88,81 11,81 11,87 6,87 6,93 2,93 2,98 98,98 98,93 	"/>
	<rect x="15" y="28.4" fill="#EC7822" width="69.3" height="5.6"/>
	<polygon fill="#EC7822" points="92.5,26.7 6.8,26.7 6.8,23.4 49.5,2.1 92.5,23.4 	"/>
</g>
</svg>
